# xmcd
#
# Track frame offsets: 
#        150
#        14602
#        30805
#        44660
#        61187
#        77770
#        91554
#        104379
#        119385
#        134652
#        149347
#        163650
#        178210
#        196552
#
# Disc length: 2823 seconds
#
# Revision: 8
# Processed by: cddbd v1.5.2PL0 Copyright (c) Steve Scherf et al.
# Submitted via: ExactAudioCopy v0.99pb5
#
DISCID=b60b050e
DTITLE=Electric Light Orchestra - Zoom (Japan, SRCS-2466)
DYEAR=2001
DGENRE=Rock
TTITLE0=Alright
TTITLE1=Moment In Paradise
TTITLE2=State Of Mind
TTITLE3=Just For Love
TTITLE4=Stranger On A Quiet Street
TTITLE5=In My Own Time
TTITLE6=Easy Money
TTITLE7=It Really Doesn't Matter
TTITLE8=Ordinary Dream
TTITLE9=A Long Time Gone
TTITLE10=Melting In The Sun
TTITLE11=All She Wanted
TTITLE12=Lonesome Lullaby
TTITLE13=Long Black Road (Bonus track)
EXTD=YEAR: 2001
EXTT0=
EXTT1=
EXTT2=
EXTT3=
EXTT4=
EXTT5=
EXTT6=
EXTT7=
EXTT8=
EXTT9=
EXTT10=
EXTT11=
EXTT12=
EXTT13=
PLAYORDER=
